<svg id="Layer_1" data-name="Layer 1" xmlns="http://www.w3.org/2000/svg" viewBox="0 0 196.79 96.61"><defs><style>.cls-1{fill:#231f20;}.cls-2{fill:#ca3c27;}</style></defs><path class="cls-1" d="M18.11,73.21h.13l5.94-21.27c.67-2.38,2.07-4.78,4.67-4.18,3.44.79,3.44,2.13,3.44,3.28a8.8,8.8,0,0,1-.74,3L21.84,85.74c-2.33,6.42-5,9.76-11.14,9.76-4.34,0-6.14-2-6.14-4.3,0-2.51,2.9-3.77,5.5-3.77h1c1.27,0,2.83-.67,3.57-3.56L1.2,56.48C.4,54.24,0,53.21,0,52.12c0-2.57.37-3.18,3.2-4.25,2-.75,4.4,1.41,5,3.53Z"/><path class="cls-1" d="M95.44,52.17c0-3,1.29-4.55,4.06-4.55s4.07,1.58,4.07,4.55v1.52h.12c1.48-4.09,5.11-6.07,9.48-6.07,7.51,0,14.1,5.87,14.1,18.33,0,9.24-4.37,17.87-13.85,17.87-4.13,0-7.21-1.78-8.87-4.88h-.12V91.8c0,3.17-1.79,4.81-4.5,4.81S95.44,95,95.44,91.8Zm19.7,2.09c-5.43,0-7.48,5.57-7.48,11.66,0,5.5,1.79,12,7.48,11.88,5.94,0,7.41-6.89,7.41-11.88C122.55,59.61,120.12,54.4,115.14,54.26Z"/><path class="cls-1" d="M76.13,40.72c0-3.22,1.78-4.89,4.46-4.89s4.46,1.67,4.46,4.89V81c0,3.21-1.77,4.89-4.46,4.89S76.13,84.16,76.13,81Z"/><path class="cls-1" d="M45.12,68.9c0,5.22,2.87,9,7.75,9,6.31,0,6.31-4.88,9.69-4.88,2,0,3.44,2,3.44,3.86,0,6-8.09,8.76-13.13,8.76-11.71,0-16.12-9.37-16.12-18,0-11.53,5.9-19.27,15.83-19.27,9.64,0,15.15,8.08,15.15,16.22,0,3.39-.87,4.27-3.68,4.27Zm13.8-5.34c-.5-5.06-3.57-8.76-7.57-8.76-4.5,0-7.21,3.4-8.19,8.76Z"/><path class="cls-2" d="M196.3,17.5a6.19,6.19,0,0,1-1.36,2,6.44,6.44,0,0,1-2,1.35,6.43,6.43,0,0,1-5,0,6.55,6.55,0,0,1-2-1.35,6.22,6.22,0,0,1-1.37-2A6.38,6.38,0,0,1,184,15a6.37,6.37,0,0,1,1.88-4.53,6.55,6.55,0,0,1,2-1.35,6.43,6.43,0,0,1,5,0,6.44,6.44,0,0,1,2,1.35,6.15,6.15,0,0,1,1.36,2,6.38,6.38,0,0,1,.49,2.51A6.55,6.55,0,0,1,196.3,17.5Zm-.94-4.72A5.75,5.75,0,0,0,194.23,11a5.18,5.18,0,0,0-1.68-1.19,5.21,5.21,0,0,0-4.19,0,5.49,5.49,0,0,0-1.7,1.19,5.77,5.77,0,0,0-1.14,1.78,5.87,5.87,0,0,0,0,4.36,5.82,5.82,0,0,0,1.14,1.79,5.27,5.27,0,0,0,1.71,1.21,5,5,0,0,0,2.12.45,4.8,4.8,0,0,0,2.06-.45A5.18,5.18,0,0,0,194.23,19a5.63,5.63,0,0,0,1.13-1.78,5.95,5.95,0,0,0,0-4.39Zm-3.11,5.9a5,5,0,0,1-.55-1.83,1.72,1.72,0,0,0-.54-1,1.92,1.92,0,0,0-1.14-.29h-.87v3.16h-.92V11.53l.91-.11a6.9,6.9,0,0,1,1-.06,4.46,4.46,0,0,1,1.29.16,2.81,2.81,0,0,1,.85.38,1.68,1.68,0,0,1,.66,1.45,1.58,1.58,0,0,1-.41,1.17,2.34,2.34,0,0,1-1,.6v.06c.65.11,1.07.69,1.24,1.73a11.37,11.37,0,0,0,.26,1.21,2.71,2.71,0,0,0,.23.56Zm-.74-6.14A2.09,2.09,0,0,0,190,12.1a3.55,3.55,0,0,0-.49,0,1.78,1.78,0,0,0-.35,0v2.67h.9a2.79,2.79,0,0,0,1.32-.3,1.06,1.06,0,0,0,.56-1A1.36,1.36,0,0,0,191.51,12.54Z"/><path class="cls-2" d="M163.41,45c-1.19,1.2-.18,3.38-.18,3.38l9,14.95s1.47,2,2.74,2a4.73,4.73,0,0,0,2.54-1l7.08-10.12a6.12,6.12,0,0,0,.73-2.39c0-1.59-2.37-2-2.37-2L166.14,44.3A3,3,0,0,0,163.41,45Z"/><path class="cls-2" d="M162.56,37.43c.86,1.46,3.22,1,3.22,1l16.72-4.88s2.28-.93,2.6-2.16a4.8,4.8,0,0,0-.37-2.73l-8-9.41A2.88,2.88,0,0,0,174.61,18c-1.58-.14-2.56,1.78-2.56,1.78l-9.44,14.87A3,3,0,0,0,162.56,37.43Z"/><path class="cls-2" d="M154.66,31.64c2-.49,2.28-3.35,2.28-3.35l-.13-23.8s-.3-2.93-1.62-3.73c-2.07-1.25-2.68-.6-3.27-.51L138,5.41A4.32,4.32,0,0,0,136,7c-1,1.61,1,4,1,4l14.42,19.66A3.69,3.69,0,0,0,154.66,31.64Z"/><path class="cls-2" d="M151.23,41.27c.05-1.83-2.2-2.94-2.2-2.94L134.11,30.8s-2.21-.92-3.28-.28a3.21,3.21,0,0,0-1.62,2.14l-1,12a7.25,7.25,0,0,0,.39,3c.77,1.34,3.27.41,3.27.41l17.42-3.85C150,43.74,151.17,43.7,151.23,41.27Z"/><path class="cls-2" d="M155.57,47.73c-1.5-.77-3.29.82-3.29.82L140.62,61.39s-1.46,2-1.09,3.17a3.09,3.09,0,0,0,1.75,2.08L153,70.34a6,6,0,0,0,2.49,0c1.53-.44,1.25-2.83,1.25-2.83L157,50.11A3,3,0,0,0,155.57,47.73Z"/></svg>